<?xml version="1.0" standalone="no"?>
<!DOCTYPE svg PUBLIC "-//W3C//DTD SVG 20010904//EN"
 "http://www.w3.org/TR/2001/REC-SVG-20010904/DTD/svg10.dtd">
<svg version="1.0" xmlns="http://www.w3.org/2000/svg"
 width="270.000000pt" height="187.000000pt" viewBox="0 0 270.000000 187.000000"
 preserveAspectRatio="xMidYMid meet">

<g transform="translate(0.000000,187.000000) scale(0.100000,-0.100000)"
fill="#000000" stroke="none">
<path d="M1429 1697 c6 -8 8 -17 4 -20 -3 -4 2 -17 13 -29 10 -13 12 -17 4
-11 -10 8 -21 9 -30 3 -8 -6 -28 -9 -45 -9 -16 0 -24 3 -17 6 6 2 9 9 6 15 -4
6 2 6 14 -1 28 -15 31 -14 28 7 -2 9 4 20 12 23 14 5 14 6 0 11 -20 8 -143
-67 -143 -86 0 -8 -4 -18 -9 -23 -5 -4 -6 -3 -2 5 10 16 -4 15 -28 -3 -11 -8
-16 -18 -12 -22 4 -4 11 -1 15 6 5 8 11 9 15 3 7 -11 -21 -25 -35 -16 -5 3
-33 -18 -61 -45 -51 -49 -52 -51 -25 -51 15 0 27 4 27 10 0 5 -8 7 -17 3 -15
-5 -14 -3 2 10 11 8 23 13 28 10 4 -2 6 0 5 5 -2 6 0 10 5 11 4 1 7 -1 7 -4 0
-3 0 -10 0 -16 0 -6 -7 -8 -16 -5 -8 3 -13 2 -10 -3 3 -4 58 -11 123 -14 65
-4 144 -13 175 -20 32 -8 60 -12 63 -9 3 3 5 43 5 88 0 72 -3 86 -22 103 -11
11 -25 18 -30 15 -4 -3 -8 2 -8 11 0 10 -5 13 -12 9 -7 -4 -10 -4 -6 1 9 10
-9 45 -24 45 -7 0 -7 -4 1 -13z m79 -238 c-11 -6 -30 -6 -50 -1 -31 9 -31 9
17 10 36 0 45 -2 33 -9z"/>
<path d="M1470 1702 c0 -5 11 -22 25 -38 19 -22 25 -25 25 -12 0 10 -8 27 -17
38 -18 21 -33 26 -33 12z"/>
<path d="M2155 980 c-4 -6 -10 -8 -14 -6 -11 7 -36 -11 -36 -26 0 -7 -6 -13
-13 -13 -17 0 -41 -43 -42 -74 0 -31 63 -91 96 -91 14 0 34 -5 45 -11 17 -8
26 -3 60 33 34 37 37 44 24 54 -8 6 -15 16 -15 23 0 6 -4 11 -10 11 -5 0 -10
6 -10 14 0 8 -8 17 -17 19 -10 2 -6 3 9 1 16 -2 28 2 32 11 3 8 10 15 16 15 6
0 8 -5 4 -12 -5 -7 -2 -9 7 -4 8 4 6 1 -4 -7 -18 -15 -18 -16 2 -36 18 -18 25
-19 46 -9 24 11 24 12 8 30 -17 19 -80 61 -98 65 -5 1 -20 5 -32 9 -14 4 -23
2 -23 -5 0 -6 12 -11 28 -11 21 0 24 -2 12 -10 -13 -9 -13 -10 0 -11 8 -1 19
-1 23 0 5 1 6 -3 3 -8 -6 -10 -85 5 -99 18 -5 5 -1 16 8 25 9 9 12 16 6 16 -5
0 -13 -5 -16 -10z m0 -49 c7 -12 -12 -24 -25 -16 -11 7 -4 25 10 25 5 0 11 -4
15 -9z m185 -35 c0 -3 -4 -8 -10 -11 -5 -3 -10 -1 -10 4 0 6 5 11 10 11 6 0
10 -2 10 -4z m-263 -53 c-3 -10 -5 -2 -5 17 0 19 2 27 5 18 2 -10 2 -26 0 -35z
m93 -33 c5 -8 19 -11 39 -7 17 4 31 2 31 -2 0 -11 -44 -20 -85 -18 -19 1 -29
7 -27 15 2 9 -4 12 -17 7 -11 -3 -22 -1 -26 4 -4 7 1 8 11 4 10 -4 15 -2 11 4
-4 6 6 9 24 8 17 -1 35 -8 39 -15z m53 13 c-7 -2 -21 -2 -30 0 -10 3 -4 5 12
5 17 0 24 -2 18 -5z"/>
<path d="M2140 813 c5 -2 8 -9 4 -14 -3 -5 0 -9 6 -9 15 0 7 23 -8 26 -7 1 -8
0 -2 -3z"/>
<path d="M1235 883 c22 -3 42 -8 45 -12 3 -4 14 -13 25 -20 19 -12 19 -12 -2
-8 -13 3 -23 1 -23 -4 0 -5 -10 -9 -22 -8 -17 0 -19 2 -8 7 8 4 16 13 18 20 4
22 -135 21 -177 -3 -14 -8 -36 -18 -47 -24 -12 -5 -31 -22 -43 -38 -11 -15
-26 -35 -33 -43 -8 -8 -13 -41 -13 -80 0 -55 6 -75 34 -128 33 -60 96 -126
165 -174 l31 -21 -28 29 c-15 17 -24 33 -20 37 3 4 0 7 -7 7 -7 0 -10 3 -7 7
4 3 23 -11 42 -33 28 -31 35 -34 30 -16 -5 18 -2 22 14 22 12 0 21 7 21 15 0
9 9 15 24 15 13 0 26 3 29 8 2 4 2 1 0 -6 -1 -8 -3 -22 -3 -33 0 -10 -7 -19
-15 -19 -8 0 -15 -7 -15 -15 0 -8 6 -15 13 -15 8 0 7 -4 -3 -10 -12 -8 -12
-10 -1 -10 8 0 11 -3 8 -7 -4 -3 -1 -13 6 -21 11 -13 9 -14 -10 -2 -12 8 -19
18 -17 22 3 4 -3 8 -13 9 -16 0 -16 1 2 9 16 7 14 8 -12 7 -29 -2 -30 -3 -14
-17 59 -52 192 -122 210 -111 11 7 11 9 0 13 -10 3 -9 6 3 10 16 7 19 -7 5
-29 -7 -11 68 -40 144 -57 28 -6 79 25 79 47 0 7 -4 6 -10 -3 -7 -12 -13 -6
-27 27 -14 32 -24 43 -40 43 -14 0 -23 6 -23 15 0 8 -7 15 -15 15 -9 0 -15 9
-15 25 0 20 5 25 25 25 16 0 25 -6 25 -15 0 -8 6 -15 14 -15 8 0 17 -10 20
-22 3 -13 15 -34 26 -48 l20 -25 0 35 c0 27 -3 31 -10 20 -7 -11 -8 -2 -4 28
4 23 3 42 -2 42 -5 0 -10 17 -11 37 -1 21 -7 39 -13 41 -5 2 -7 9 -4 14 4 6 2
8 -4 4 -6 -3 -14 -1 -18 5 -3 6 -1 15 6 19 9 6 1 32 -30 104 -23 53 -46 96
-50 96 -4 0 -11 -11 -14 -25 -4 -14 -13 -25 -21 -25 -8 0 -15 -5 -15 -11 0
-29 -60 -53 -75 -29 -4 6 5 10 19 10 24 0 26 4 27 43 0 30 3 36 8 23 5 -13 10
-16 15 -8 4 6 2 21 -4 32 -8 14 -8 26 0 40 13 24 25 27 16 4 -4 -9 -2 -13 5
-8 8 4 8 1 0 -14 -6 -11 -11 -23 -11 -26 0 -8 35 -7 43 1 8 7 -14 46 -46 80
-19 21 -21 21 -33 5 -7 -9 -16 -14 -20 -10 -4 4 -1 15 6 23 11 13 9 19 -9 39
-34 36 -124 76 -168 74 l-38 -1 40 -4z m-81 -24 c-5 -9 1 -10 22 -5 l29 6 -25
-15 c-29 -17 -66 -22 -40 -5 12 8 10 10 -8 10 -13 0 -20 -4 -17 -10 3 -5 -1
-10 -9 -10 -28 0 -17 19 17 29 17 5 33 10 35 10 2 1 0 -4 -4 -10z m231 -47
c-3 -3 -11 0 -18 7 -9 10 -8 11 6 5 10 -3 15 -9 12 -12z m-265 -27 c0 -24 5
-35 15 -35 8 0 15 -5 15 -10 0 -6 11 -16 25 -22 14 -6 25 -19 25 -30 0 -14 8
-18 40 -18 l40 0 0 -45 c0 -25 5 -45 10 -45 6 0 10 -9 10 -20 0 -11 -4 -20 -9
-20 -5 0 -12 -8 -14 -17 -3 -10 -5 1 -6 25 l-1 42 -40 0 -40 0 0 40 c0 33 -4
40 -19 40 -10 0 -21 9 -24 20 -7 27 -25 25 -30 -2 -2 -13 -5 -4 -6 20 -1 41
-2 42 -36 42 -21 0 -35 5 -36 13 0 6 -2 22 -5 35 -4 20 0 22 41 22 45 0 45 0
45 -35z m-94 -10 c2 -18 -3 -25 -17 -25 -10 0 -19 3 -19 7 0 5 30 43 34 43 1
0 2 -11 2 -25z m367 10 c-3 -9 -8 -14 -10 -11 -3 3 -2 9 2 15 9 16 15 13 8 -4z
m62 -35 c3 -5 1 -10 -4 -10 -6 0 -11 5 -11 10 0 6 2 10 4 10 3 0 8 -4 11 -10z
m78 -156 c-6 -16 -33 -7 -33 11 0 17 23 25 32 12 3 -6 4 -16 1 -23z m-508 -51
c18 -43 18 -44 1 -37 -9 3 -12 12 -9 21 4 11 2 14 -5 9 -8 -5 -10 -1 -5 10 4
10 2 15 -3 11 -5 -3 -10 3 -10 13 0 26 14 15 31 -27z m349 5 c31 -44 12 -88
-43 -101 -37 -9 -52 13 -39 56 8 28 17 37 42 42 28 6 29 8 11 15 -16 7 -17 9
-3 9 9 1 24 -9 32 -21z m153 -20 c-3 -8 -6 -5 -6 6 -1 11 2 17 5 13 3 -3 4
-12 1 -19z m43 -21 c0 -36 -7 -32 -19 11 -8 25 -6 30 5 25 8 -3 14 -19 14 -36z
m-133 -14 c-4 -17 -4 -17 -12 0 -4 9 -4 25 0 35 8 16 8 16 12 0 3 -10 3 -26 0
-35z m-317 -15 c0 -36 -4 -35 -14 5 -4 16 -2 27 4 27 5 0 10 -14 10 -32z m417
10 c-3 -8 -6 -5 -6 6 -1 11 2 17 5 13 3 -3 4 -12 1 -19z m-447 -13 c7 -8 9
-23 5 -32 -6 -16 -8 -16 -16 5 -4 12 -16 22 -24 22 -9 0 -13 5 -10 10 9 15 31
12 45 -5z m474 -31 c3 -8 2 -12 -4 -9 -6 3 -10 10 -10 16 0 14 7 11 14 -7z
m-124 -4 c0 -5 11 -10 25 -10 16 0 25 -6 25 -15 0 -8 7 -15 15 -15 9 0 15 -9
15 -25 0 -20 -5 -25 -25 -25 -16 0 -25 6 -25 15 0 8 -7 15 -15 15 -9 0 -15 9
-15 25 0 21 -5 25 -31 25 -17 0 -28 4 -24 10 3 6 17 10 31 10 13 0 24 -4 24
-10z m-245 -30 c-3 -5 -10 -10 -16 -10 -5 0 -9 5 -9 10 0 6 7 10 16 10 8 0 12
-4 9 -10z m412 -32 c-3 -7 -5 -2 -5 12 0 14 2 19 5 13 2 -7 2 -19 0 -25z m10
-80 c-3 -8 -6 -5 -6 6 -1 11 2 17 5 13 3 -3 4 -12 1 -19z m-246 -40 c17 -10
23 -10 26 0 3 6 14 12 26 12 21 -1 21 -1 -3 -15 -30 -17 -60 -19 -60 -4 0 5
-4 8 -8 5 -4 -2 -14 -1 -22 5 -24 14 16 12 41 -3z m166 -74 c-3 -3 -12 -4 -19
-1 -8 3 -5 6 6 6 11 1 17 -2 13 -5z m80 -1 c-4 -3 -22 -7 -39 -9 -26 -2 -29
-1 -13 6 24 10 61 13 52 3z"/>
<path d="M1340 510 c0 -5 5 -10 10 -10 6 0 10 5 10 10 0 6 -4 10 -10 10 -5 0
-10 -4 -10 -10z"/>
<path d="M1300 474 c0 -9 10 -14 30 -14 17 0 30 2 30 4 0 2 -13 9 -30 15 -24
8 -30 7 -30 -5z"/>
<path d="M2345 854 c-16 -13 -27 -26 -23 -29 3 -3 25 -9 49 -14 33 -7 37 -9
16 -10 -25 -1 -27 -3 -13 -16 19 -19 40 -19 56 0 12 15 12 15 -32 66 l-23 27
-30 -24z m40 -20 c20 -15 20 -16 -4 -12 -14 2 -26 9 -29 16 -5 16 9 15 33 -4z"/>
<path d="M2270 780 l-35 -30 60 1 c46 0 55 2 38 9 -13 5 -23 12 -23 15 0 4 4
4 9 0 5 -3 13 0 17 6 6 10 -11 28 -26 29 -3 0 -21 -14 -40 -30z"/>
</g>
</svg>
